<svg version="1" xmlns="http://www.w3.org/2000/svg" width="682.667" height="682.667" viewBox="0 0 512.000000 512.000000"><path d="M222.6 1.6C133.3 13.1 55.2 72.5 19.7 156.1 10.8 177.1 4.4 201 1.5 224c-2 16.3-2 47.7 0 64 13.2 107 93.1 194.8 198.8 218.4 33.9 7.6 77.5 7.6 111.4 0 46.8-10.4 88.1-32.8 122.7-66.3 42.5-41.3 68.9-94.1 76.1-152.1 2-16.3 2-47.7 0-64C496.2 108.2 403.8 15.8 288 1.5c-15.5-1.9-50.2-1.8-65.4.1zm-7.9 189.6c-.4 24.9-1 63.3-1.3 85.3-.4 22-.4 39.7 0 39.4.6-.6 15.7-51.1 23.2-78.2l3.9-13.7h15.7c14.1 0 15.7.2 16.1 1.7 8.3 30.4 25.3 89.1 26 89.8 1 1.1.7-7.3-2.4-78.5-1-24.5-2.2-55-2.6-67.8l-.6-23.2h44.4l-.5 5.2c-.3 2.9-.8 13.6-1.1 23.8-2.1 67-8.5 177-11 188.7-.5 2.3-.7 2.3-18.4 2.3h-17.9l-5.1-15.3c-2.7-8.3-9.5-29.8-15.1-47.7-5.6-17.9-10.5-32.9-11-33.4-.7-.7-28.2 80.4-31.2 92.1l-1 4.3h-18.4c-17.4 0-18.4-.1-18.4-1.9 0-1-.7-8.1-1.5-15.7-3.6-34.5-7.7-99.2-9.5-150.4-.5-16.2-1.2-34.6-1.5-40.8L175 146h40.3l-.6 45.2z"/></svg>